<svg id="图层_1" data-name="图层 1" xmlns="http://www.w3.org/2000/svg" viewBox="0 0 197.51 197.51"><defs><style>.cls-1{fill:#e32a26;}.cls-2{fill:#fff;}</style></defs><title>ink_coin</title><circle class="cls-1" cx="98.76" cy="98.76" r="98.76"/><path class="cls-2" d="M297.64,339.58A81.37,81.37,0,1,0,379,420.94,81.45,81.45,0,0,0,297.64,339.58Zm0,153.73a72.44,72.44,0,0,1-72.21-67.87h12.16v-9H225.43a72.35,72.35,0,0,1,144.42,0H357.69v9h12.16A72.44,72.44,0,0,1,297.64,493.31Z" transform="translate(-198.88 -322.19)"/><path class="cls-2" d="M332.22,374.06a4.49,4.49,0,0,0-5,1.79L301,414.59l-23.07-31.73h9.43v-9h-31.5v9h10.68V459H255.87v9h31.5v-9H275.55V394.88L327.26,466a4.53,4.53,0,0,0,3.65,1.85,4.49,4.49,0,0,0,4.49-4.5v-85A4.5,4.5,0,0,0,332.22,374.06Zm-5.82,75.48-19.77-27.2,19.77-29.27Z" transform="translate(-198.88 -322.19)"/></svg>