<?xml version="1.0" encoding="utf-8"?>
<!-- Generator: Adobe Illustrator 22.0.1, SVG Export Plug-In . SVG Version: 6.00 Build 0)  -->
<svg version="1.1" id="图层_1" xmlns="http://www.w3.org/2000/svg" xmlns:xlink="http://www.w3.org/1999/xlink" x="0px" y="0px"
	 viewBox="0 0 547.1 486.1" style="enable-background:new 0 0 547.1 486.1;" xml:space="preserve">
<style type="text/css">
	.st0{fill:#2CA6E0;}
</style>
<title>qtum logo</title>
<path class="st0" d="M517.9,415.8c-6.6,0-12.9,2.4-17.9,6.6l-49.7-42.6l38.2-117.5c0.4,0,0.8,0.1,1.3,0.1
	c10.7,0.2,19.6-8.2,19.8-18.9c0.2-10.7-8.2-19.6-18.9-19.8c-0.3,0-0.6,0-0.9,0c-0.4,0-0.8,0.1-1.3,0.1l-33.3-102.6
	c9.1-5.6,11.8-17.6,6.2-26.6s-17.6-11.8-26.6-6.2c-0.8,0.5-1.6,1-2.3,1.7l-87.9-63.5c3.9-9.9-0.9-21.2-10.8-25.1
	c-9.9-3.9-21.2,0.9-25.1,10.8c-0.3,0.8-0.6,1.6-0.8,2.4H201.3c-2.5-10.4-13-16.7-23.4-14.2s-16.7,13-14.2,23.4
	c0.2,0.9,0.5,1.8,0.9,2.7L76.7,90c-8.1-6.9-20.3-5.9-27.2,2.3c-6.9,8.1-5.9,20.3,2.3,27.2c0.7,0.6,1.5,1.2,2.3,1.7L20.8,223.3
	c-0.5,0-0.9-0.1-1.4-0.1C8.7,223.4,0.2,232.3,0.4,243c0.2,10.4,8.6,18.7,18.9,18.9c0.4,0,0.8-0.1,1.1-0.1L54,365
	c-9.1,5.6-11.8,17.6-6.2,26.6c5.6,9.1,17.6,11.8,26.6,6.2c0.7-0.4,1.4-0.9,2-1.5l88.1,63.3c-0.9,2.3-1.4,4.7-1.4,7.1
	c0,10.7,8.6,19.4,19.3,19.4c8.9,0,16.6-6,18.8-14.6h106.5c2.6,10.4,13.1,16.7,23.5,14.1c10.4-2.6,16.7-13.1,14.1-23.5
	c-0.2-0.8-0.5-1.6-0.8-2.4l100-72.3l49.3,42.2c-7.9,13.3-3.5,30.6,9.8,38.5c13.3,7.9,30.6,3.5,38.5-9.8c7.9-13.3,3.5-30.6-9.8-38.5
	C527.9,417.2,522.9,415.8,517.9,415.8L517.9,415.8z M447.9,129.8l31.5,96.9c-4.2,2.7-7.2,6.8-8.5,11.7h-16.2
	c-1.5-6.7-6.4-12.1-12.9-14.1L447.9,129.8z M438.9,123.2l-6.5,100.3c-0.5,0.1-0.9,0.2-1.3,0.3L391,148.1c4.1-3.6,6.4-8.8,6.4-14.3
	c0-1.1-0.1-2.2-0.3-3.2l5.2-2.2l27.2-11.8C431.9,119.7,435.2,122,438.9,123.2L438.9,123.2z M330.2,224c-3-0.6-6.1-0.5-9,0.4
	L267.8,132c2-1.8,3.5-4.1,4.6-6.6l86.5,10.7c0.6,4.9,3,9.4,6.9,12.6L330.2,224z M374.4,152.8c2.8,0.6,5.6,0.5,8.3-0.2l40.1,75.8
	c-2.9,2.7-4.9,6.2-5.8,10h-71.8c-1-3.8-3.1-7.2-6-9.8L374.4,152.8z M313,229.2c-2.6,2.5-4.4,5.7-5.2,9.1H201.3
	c-0.9-3.5-2.7-6.7-5.2-9.2l53.5-92.6c3.3,1,6.7,1,10,0L313,229.2z M187.8,224.5c-2.9-0.9-6-1.1-9-0.4l-35.5-75.3
	c3.8-3.2,6.3-7.7,6.9-12.6l86.3-11.2c1,2.6,2.6,4.9,4.5,6.8L187.8,224.5z M170.3,228.1c-3.2,2.6-5.5,6.2-6.5,10.2H92.6
	c-0.9-3.7-3-7.1-5.9-9.7l39.8-76c1.5,0.4,3,0.6,4.5,0.6c1.3,0,2.5-0.1,3.7-0.4L170.3,228.1z M92.6,247.8h71.2c1,4,3.3,7.6,6.5,10.2
	l-35.5,75.4c-2.7-0.6-5.5-0.5-8.2,0.2l-39.8-76.1C89.6,254.9,91.7,251.5,92.6,247.8L92.6,247.8z M178.9,262.1
	c1.2,0.2,2.5,0.4,3.7,0.4c1.8,0,3.6-0.3,5.3-0.8l53.2,92.2c-2,1.9-3.5,4.3-4.5,6.9L150.3,350c-0.6-4.9-3.1-9.4-6.9-12.5L178.9,262.1
	z M196.1,257c2.6-2.5,4.4-5.7,5.2-9.2h106.4c0.9,3.5,2.7,6.7,5.2,9.2l-53.2,92.2c-3.4-1.1-7.1-1.1-10.5,0L196.1,257z M321.3,261.6
	c1.7,0.5,3.5,0.8,5.3,0.8c1.2,0,2.5-0.1,3.7-0.4l35.6,75.4c-3.8,3.1-6.3,7.6-6.9,12.5l-86.3,10.7c-1-2.6-2.6-5-4.6-6.9L321.3,261.6z
	 M338.8,258c3.2-2.6,5.5-6.2,6.5-10.2h72.1c1,3.6,3,6.8,5.8,9.2l-40.5,76.6c-2.7-0.7-5.6-0.8-8.3-0.2L338.8,258z M338.9,34.2
	l87.9,63.5c-0.9,2.3-1.4,4.7-1.4,7.2c0,1,0.1,2.1,0.3,3.1l-32.5,14c-4.3-5.8-11.5-8.6-18.6-7.2l-34.2-75.9l-2-4.4L338.9,34.2z
	 M319.3,37.3c2.3,0.9,4.7,1.4,7.2,1.4c1.1,0,2.3-0.1,3.4-0.4l5.2,11.5l31,68.7c-2.7,2.1-4.7,4.8-6,8l-86.4-11.2
	c-0.4-3.6-1.9-6.9-4.1-9.7L319.3,37.3z M201.3,24.1h106.5c0.7,2.8,2,5.3,3.8,7.5l-50.3,68.1c-2.2-0.8-4.5-1.3-6.8-1.3
	c-2.5,0-4.9,0.5-7.2,1.4l-49.9-68.2C199.3,29.5,200.6,26.9,201.3,24.1L201.3,24.1z M182.6,38.8c2.5,0,4.9-0.5,7.2-1.4l49.7,68.4
	c-2.2,2.8-3.7,6.1-4.1,9.6l-86.3,11.3c-1.3-3.1-3.3-5.9-6-8l36.1-80.3C180.3,38.6,181.5,38.8,182.6,38.8L182.6,38.8z M170.2,34.2
	l0.4,0.3l-36.1,80.3c-1.1-0.2-2.2-0.3-3.4-0.3c-6,0-11.7,2.8-15.3,7.6L83.4,108c0.2-1,0.3-2.1,0.3-3.1c0-2.5-0.5-4.9-1.4-7.2
	L170.2,34.2z M79.6,116.6l32.5,14.1c-0.2,1-0.3,2.1-0.3,3.1c0,5.5,2.4,10.7,6.5,14.4l-39.8,76c-0.4-0.1-0.7-0.2-1.1-0.2l-7-100.9
	C74,121.9,77.2,119.7,79.6,116.6L79.6,116.6z M61.3,356.7L29.5,259c4.1-2.5,7.1-6.5,8.4-11.2h17.2c1.6,6.4,6.4,11.6,12.7,13.6
	L61.3,356.7z M55.2,238.3H38.3c-1.1-5-4.2-9.3-8.5-12.1l31.5-96.8l6.6,95.3C61.6,226.8,56.8,231.9,55.2,238.3L55.2,238.3z M70.3,363
	l7-100.8l1.1-0.2l37.1,71l2.7,5.1c-4.1,3.6-6.5,8.9-6.5,14.4c0,1,0.1,2,0.3,3l-32.6,14C77.1,366.4,73.9,364.1,70.3,363z M170.2,452
	l-88-63.2c1-2.4,1.5-4.9,1.5-7.5c0-1-0.1-2.1-0.3-3.1l32.4-14c3.6,4.8,9.3,7.6,15.3,7.6c1.1,0,2.2-0.1,3.4-0.3l36.1,80.2L170.2,452z
	 M189.8,448.8c-2.3-0.9-4.7-1.4-7.2-1.4c-1.1,0-2.3,0.1-3.4,0.3l-7.8-17.3l-28.3-62.9c2.7-2.1,4.8-4.9,6.1-8.1l20.9,2.6l65.4,8.1
	c0.4,3.7,1.9,7.2,4.3,10l-8.4,11.6L189.8,448.8z M307.8,462H201.3c-0.7-2.8-2-5.4-3.9-7.6l49.9-68.7c4.6,1.9,9.8,1.9,14.4,0
	l49.9,68.7C309.8,456.6,308.5,459.2,307.8,462L307.8,462z M329.9,447.7c-1.1-0.2-2.3-0.3-3.4-0.3c-2.5,0-4.9,0.5-7.2,1.4l-20.5-28.1
	L269.4,380c2.4-2.8,3.9-6.3,4.3-10l66.3-8.2l20-2.5c1.2,3.1,3.2,5.7,5.7,7.8L331.1,445L329.9,447.7z M338.9,451.9l-0.4-0.3l1.2-2.8
	l34.9-77.4c1.1,0.2,2.3,0.3,3.4,0.3c5.9,0,11.6-2.8,15.2-7.5l42,18L338.9,451.9z M397.1,355.5c0.2-1,0.3-2.1,0.3-3.1
	c0-5.5-2.4-10.7-6.5-14.3l22.4-42.3l18.2-34.4l0.8,0.2l7.2,112.3L397.1,355.5z M441.8,261c6.2-2,10.9-6.9,12.7-13.1H471
	c1.2,4.8,4.2,9,8.5,11.6l-31.5,96.9L441.8,261z"/>
</svg>
